<?xml version="1.0" encoding="UTF-8" standalone="no"?>
<!DOCTYPE svg PUBLIC "-//W3C//DTD SVG 1.1//EN" "http://www.w3.org/Graphics/SVG/1.1/DTD/svg11.dtd">
<svg width="100%" height="100%" viewBox="0 0 1920 1080" version="1.1" xmlns="http://www.w3.org/2000/svg" xmlns:xlink="http://www.w3.org/1999/xlink" xml:space="preserve" xmlns:serif="http://www.serif.com/" style="fill-rule:evenodd;clip-rule:evenodd;stroke-linecap:round;stroke-linejoin:round;stroke-miterlimit:1.5;">
    <g transform="matrix(-6.12323e-17,-1,-2.14764,1.31505e-16,2042.97,959.902)">
        <g transform="matrix(1,0,0,1,-216,0)">
            <path d="M237.364,-135.869C317.358,-135.869 380.81,-96.251 446.081,-52.778C560.86,23.669 679.433,117.283 751.117,238.421C791.492,306.652 803.151,393.773 816.803,470.549C834.133,568.002 890.425,795.364 938.553,872.238C1038.52,1031.92 1226.17,1092.23 1376.23,1192.08" style="fill:none;stroke:rgb(237,240,255);stroke-width:5.07px;"/>
        </g>
        <g transform="matrix(1,0,0,1,-178.658,0)">
            <path d="M237.364,-135.869C317.358,-135.869 380.81,-96.251 446.081,-52.778C560.86,23.669 679.433,117.283 751.117,238.421C791.492,306.652 803.151,393.773 816.803,470.549C834.133,568.002 890.425,795.364 938.553,872.238C1038.52,1031.92 1226.17,1092.23 1376.23,1192.08" style="fill:none;stroke:rgb(237,240,255);stroke-width:5.07px;"/>
        </g>
        <g transform="matrix(1,0,0,1,-141.288,0)">
            <path d="M237.364,-135.869C317.358,-135.869 380.81,-96.251 446.081,-52.778C560.86,23.669 679.433,117.283 751.117,238.421C791.492,306.652 803.151,393.773 816.803,470.549C834.133,568.002 890.425,795.364 938.553,872.238C1038.52,1031.92 1226.17,1092.23 1376.23,1192.08" style="fill:none;stroke:rgb(237,240,255);stroke-width:5.07px;"/>
        </g>
        <g transform="matrix(1,0,0,1,-105.35,0)">
            <path d="M237.364,-135.869C317.358,-135.869 380.81,-96.251 446.081,-52.778C560.86,23.669 679.433,117.283 751.117,238.421C791.492,306.652 803.151,393.773 816.803,470.549C834.133,568.002 890.425,795.364 938.553,872.238C1038.52,1031.92 1226.17,1092.23 1376.23,1192.08" style="fill:none;stroke:rgb(237,240,255);stroke-width:5.07px;"/>
        </g>
        <g transform="matrix(1,0,0,1,-65.1273,0)">
            <path d="M237.364,-135.869C317.358,-135.869 380.81,-96.251 446.081,-52.778C560.86,23.669 679.433,117.283 751.117,238.421C791.492,306.652 803.151,393.773 816.803,470.549C834.133,568.002 890.425,795.364 938.553,872.238C1038.52,1031.92 1226.17,1092.23 1376.23,1192.08" style="fill:none;stroke:rgb(237,240,255);stroke-width:5.07px;"/>
        </g>
        <g transform="matrix(1,0,0,1,-21.9942,0)">
            <path d="M237.364,-135.869C317.358,-135.869 380.81,-96.251 446.081,-52.778C560.86,23.669 679.433,117.283 751.117,238.421C791.492,306.652 803.151,393.773 816.803,470.549C834.133,568.002 890.425,795.364 938.553,872.238C1038.52,1031.92 1226.17,1092.23 1376.23,1192.08" style="fill:none;stroke:rgb(237,240,255);stroke-width:5.07px;"/>
        </g>
    </g>
    <g transform="matrix(-1.61093,7.34703e-16,-2.79847e-16,-1,2695.89,1050.76)">
        <path d="M1734.23,-217.072C1734.23,-134.391 1710.43,-71.043 1673.07,3.465C1585.12,178.861 1450.25,206.227 1265.77,206.227C1180.66,206.227 1086.99,218.512 1002.61,202.654C924.649,188.002 837.295,155.672 768.029,115.87C666.022,57.255 410.001,-168.368 377.21,-282.824" style="fill:none;stroke:rgb(237,240,255);stroke-width:6.34px;"/>
        <g transform="matrix(1,0,0,1,0,-31.774)">
            <path d="M1734.23,-217.072C1734.23,-134.391 1710.43,-71.043 1673.07,3.465C1585.12,178.861 1450.25,206.227 1265.77,206.227C1180.66,206.227 1086.99,218.512 1002.61,202.654C924.649,188.002 837.295,155.672 768.029,115.87C666.022,57.255 410.001,-168.368 377.21,-282.824" style="fill:none;stroke:rgb(237,240,255);stroke-width:6.34px;"/>
        </g>
        <g transform="matrix(1,0,0,1,0,32.0229)">
            <path d="M1734.23,-217.072C1734.23,-134.391 1710.43,-71.043 1673.07,3.465C1585.12,178.861 1450.25,206.227 1265.77,206.227C1180.66,206.227 1086.99,218.512 1002.61,202.654C924.649,188.002 837.295,155.672 768.029,115.87C666.022,57.255 410.001,-168.368 377.21,-282.824" style="fill:none;stroke:rgb(237,240,255);stroke-width:6.34px;"/>
        </g>
        <g transform="matrix(1,0,0,1,0,65.9697)">
            <path d="M1734.23,-217.072C1734.23,-134.391 1710.43,-71.043 1673.07,3.465C1585.12,178.861 1450.25,206.227 1265.77,206.227C1180.66,206.227 1086.99,218.512 1002.61,202.654C924.649,188.002 837.295,155.672 768.029,115.87C666.022,57.255 410.001,-168.368 377.21,-282.824" style="fill:none;stroke:rgb(237,240,255);stroke-width:6.34px;"/>
        </g>
        <g transform="matrix(1,0,0,1,0,102.422)">
            <path d="M1734.23,-217.072C1734.23,-134.391 1710.43,-71.043 1673.07,3.465C1585.12,178.861 1450.25,206.227 1265.77,206.227C1180.66,206.227 1086.99,218.512 1002.61,202.654C924.649,188.002 837.295,155.672 768.029,115.87C666.022,57.255 410.001,-168.368 377.21,-282.824" style="fill:none;stroke:rgb(237,240,255);stroke-width:6.34px;"/>
        </g>
        <g transform="matrix(1,0,0,1,0,138.241)">
            <path d="M1734.23,-217.072C1734.23,-134.391 1710.43,-71.043 1673.07,3.465C1585.12,178.861 1450.25,206.227 1265.77,206.227C1180.66,206.227 1086.99,218.512 1002.61,202.654C924.649,188.002 837.295,155.672 768.029,115.87C666.022,57.255 410.001,-168.368 377.21,-282.824" style="fill:none;stroke:rgb(237,240,255);stroke-width:6.34px;"/>
        </g>
        <g transform="matrix(1,0,0,1,0,176.412)">
            <path d="M1734.23,-217.072C1734.23,-134.391 1710.43,-71.043 1673.07,3.465C1585.12,178.861 1450.25,206.227 1265.77,206.227C1180.66,206.227 1086.99,218.512 1002.61,202.654C924.649,188.002 837.295,155.672 768.029,115.87C666.022,57.255 410.001,-168.368 377.21,-282.824" style="fill:none;stroke:rgb(237,240,255);stroke-width:6.34px;"/>
        </g>
        <g transform="matrix(1,0,0,1,0,-64.5917)">
            <path d="M1734.23,-217.072C1734.23,-134.391 1710.43,-71.043 1673.07,3.465C1585.12,178.861 1450.25,206.227 1265.77,206.227C1180.66,206.227 1086.99,218.512 1002.61,202.654C924.649,188.002 837.295,155.672 768.029,115.87C666.022,57.255 410.001,-168.368 377.21,-282.824" style="fill:none;stroke:rgb(237,240,255);stroke-width:6.34px;"/>
        </g>
    </g>
</svg>
