<?xml version="1.0" encoding="UTF-8" standalone="no"?>
<!DOCTYPE svg PUBLIC "-//W3C//DTD SVG 1.1//EN" "http://www.w3.org/Graphics/SVG/1.1/DTD/svg11.dtd">
<svg width="100%" height="100%" viewBox="0 0 1920 1080" version="1.1" xmlns="http://www.w3.org/2000/svg" xmlns:xlink="http://www.w3.org/1999/xlink" xml:space="preserve" xmlns:serif="http://www.serif.com/" style="fill-rule:evenodd;clip-rule:evenodd;stroke-linecap:round;stroke-linejoin:round;stroke-miterlimit:1.5;">
    <g transform="matrix(1,0,0,1,-459.079,-215.643)">
        <path d="M310.462,41.302C310.462,41.302 868.83,109.916 683.641,653.245C498.451,1196.57 639.52,1529.76 894.488,1566.74" style="fill:none;stroke:rgb(0,45,255);stroke-width:8.5px;"/>
    </g>
    <g transform="matrix(1,0,0,1,-495.531,-215.643)">
        <path d="M310.462,41.302C310.462,41.302 868.83,109.916 683.641,653.245C498.451,1196.57 639.52,1529.76 894.488,1566.74" style="fill:none;stroke:rgb(0,45,255);stroke-width:8.5px;"/>
    </g>
    <g transform="matrix(1,0,0,1,-530.939,-215.643)">
        <path d="M310.462,41.302C310.462,41.302 868.83,109.916 683.641,653.245C498.451,1196.57 639.52,1529.76 894.488,1566.74" style="fill:none;stroke:rgb(0,45,255);stroke-width:8.5px;"/>
    </g>
    <g transform="matrix(1,0,0,1,-417.938,-215.643)">
        <path d="M310.462,41.302C310.462,41.302 868.83,109.916 683.641,653.245C498.451,1196.57 639.52,1529.76 894.488,1566.74" style="fill:none;stroke:rgb(0,45,255);stroke-width:8.5px;"/>
    </g>
    <g transform="matrix(1,0,0,1,-382.499,-215.643)">
        <path d="M310.462,41.302C310.462,41.302 868.83,109.916 683.641,653.245C498.451,1196.57 639.52,1529.76 894.488,1566.74" style="fill:none;stroke:rgb(0,45,255);stroke-width:8.5px;"/>
    </g>
    <g transform="matrix(1,0,0,1,-36,58)">
        <path d="M1957,174C1865.84,309.415 1918.46,593.894 1829,786C1739.54,978.106 1143.39,1096.03 1073,1096" style="fill:none;stroke:rgb(0,45,255);stroke-width:8.5px;"/>
    </g>
    <g transform="matrix(1,0,0,1,-11.9498,82.0502)">
        <path d="M1957,174C1865.84,309.415 1918.46,593.894 1829,786C1739.54,978.106 1143.39,1096.03 1073,1096" style="fill:none;stroke:rgb(0,45,255);stroke-width:8.5px;"/>
    </g>
    <g transform="matrix(1,0,0,1,16.3027,110.303)">
        <path d="M1957,174C1865.84,309.415 1918.46,593.894 1829,786C1739.54,978.106 1143.39,1096.03 1073,1096" style="fill:none;stroke:rgb(0,45,255);stroke-width:8.5px;"/>
    </g>
    <g transform="matrix(1,0,0,1,45.9234,139.923)">
        <path d="M1957,174C1865.84,309.415 1918.46,593.894 1829,786C1739.54,978.106 1143.39,1096.03 1073,1096" style="fill:none;stroke:rgb(0,45,255);stroke-width:8.5px;"/>
    </g>
    <g transform="matrix(1,0,0,1,76.0421,170.042)">
        <path d="M1957,174C1865.84,309.415 1918.46,593.894 1829,786C1739.54,978.106 1143.39,1096.03 1073,1096" style="fill:none;stroke:rgb(0,45,255);stroke-width:8.5px;"/>
    </g>
    <g transform="matrix(-1,-1.22465e-16,1.22465e-16,-1,1932,1106.92)">
        <g transform="matrix(1,0,0,1,0,-10)">
            <path d="M582,-85C877.526,77.513 1439.43,116.534 1676,-62" style="fill:none;stroke:rgb(0,45,255);stroke-width:8.5px;"/>
        </g>
        <g transform="matrix(1,0,0,1,0,26.0108)">
            <path d="M582,-85C877.526,77.513 1439.43,116.534 1676,-62" style="fill:none;stroke:rgb(0,45,255);stroke-width:8.5px;"/>
        </g>
        <g transform="matrix(1,0,0,1,0,61.4767)">
            <path d="M582,-85C877.526,77.513 1439.43,116.534 1676,-62" style="fill:none;stroke:rgb(0,45,255);stroke-width:8.5px;"/>
        </g>
    </g>
</svg>
