<?xml version="1.0" encoding="UTF-8" standalone="no"?>
<!DOCTYPE svg PUBLIC "-//W3C//DTD SVG 1.1//EN" "http://www.w3.org/Graphics/SVG/1.1/DTD/svg11.dtd">
<svg width="100%" height="100%" viewBox="0 0 1920 1080" version="1.1" xmlns="http://www.w3.org/2000/svg" xmlns:xlink="http://www.w3.org/1999/xlink" xml:space="preserve" xmlns:serif="http://www.serif.com/" style="fill-rule:evenodd;clip-rule:evenodd;stroke-linecap:round;stroke-linejoin:round;stroke-miterlimit:1.5;">
    <path d="M-17.86,-46.945C-17.86,-45.847 52.88,-1.66 94.582,43.527C174.862,130.516 263.656,223.909 303.529,338.298C369.565,527.744 208.034,690.422 246.307,881.846C271.245,1006.57 426.765,1201.41 523.551,1279.76C574.471,1320.98 640.651,1352.98 683.396,1402.85" style="fill:none;stroke:rgb(0,45,255);stroke-width:8.5px;"/>
    <g transform="matrix(1,0,0,1,-26.0885,0)">
        <path d="M-17.86,-46.945C-17.86,-45.847 52.88,-1.66 94.582,43.527C174.862,130.516 263.656,223.909 303.529,338.298C369.565,527.744 208.034,690.422 246.307,881.846C271.245,1006.57 426.765,1201.41 523.551,1279.76C574.471,1320.98 640.651,1352.98 683.396,1402.85" style="fill:none;stroke:rgb(0,45,255);stroke-width:8.5px;"/>
    </g>
    <g transform="matrix(1,0,0,1,-51.63,0)">
        <path d="M-17.86,-46.945C-17.86,-45.847 52.88,-1.66 94.582,43.527C174.862,130.516 263.656,223.909 303.529,338.298C369.565,527.744 208.034,690.422 246.307,881.846C271.245,1006.57 426.765,1201.41 523.551,1279.76C574.471,1320.98 640.651,1352.98 683.396,1402.85" style="fill:none;stroke:rgb(0,45,255);stroke-width:8.5px;"/>
    </g>
    <g transform="matrix(1,0,0,1,-76.3277,0)">
        <path d="M-17.86,-46.945C-17.86,-45.847 52.88,-1.66 94.582,43.527C174.862,130.516 263.656,223.909 303.529,338.298C369.565,527.744 208.034,690.422 246.307,881.846C271.245,1006.57 426.765,1201.41 523.551,1279.76C574.471,1320.98 640.651,1352.98 683.396,1402.85" style="fill:none;stroke:rgb(0,45,255);stroke-width:8.5px;"/>
    </g>
    <g transform="matrix(1,0,0,1,-102.549,0)">
        <path d="M-17.86,-46.945C-17.86,-45.847 52.88,-1.66 94.582,43.527C174.862,130.516 263.656,223.909 303.529,338.298C369.565,527.744 208.034,690.422 246.307,881.846C271.245,1006.57 426.765,1201.41 523.551,1279.76C574.471,1320.98 640.651,1352.98 683.396,1402.85" style="fill:none;stroke:rgb(0,45,255);stroke-width:8.5px;"/>
    </g>
    <g transform="matrix(1,0,0,1,-192.366,0)">
        <path d="M-17.86,-46.945C-17.86,-45.847 52.88,-1.66 94.582,43.527C174.862,130.516 263.656,223.909 303.529,338.298C369.565,527.744 208.034,690.422 246.307,881.846C271.245,1006.57 426.765,1201.41 523.551,1279.76C574.471,1320.98 640.651,1352.98 683.396,1402.85" style="fill:none;stroke:rgb(0,45,255);stroke-width:8.5px;"/>
    </g>
    <g transform="matrix(1,0,0,1,-222.009,0)">
        <path d="M-17.86,-46.945C-17.86,-45.847 52.88,-1.66 94.582,43.527C174.862,130.516 263.656,223.909 303.529,338.298C369.565,527.744 208.034,690.422 246.307,881.846C271.245,1006.57 426.765,1201.41 523.551,1279.76C574.471,1320.98 640.651,1352.98 683.396,1402.85" style="fill:none;stroke:rgb(0,45,255);stroke-width:8.5px;"/>
    </g>
    <path d="M585.872,1176.08C585.872,1147.92 608.246,1118.06 619.27,1092.01C727.215,836.955 1035.74,957.344 1250.7,926.7C1697.98,862.938 2027.88,725.422 2128.18,242.862C2163.82,71.359 2190.47,-64.914 2139.18,-231.443" style="fill:none;stroke:rgb(0,45,255);stroke-width:8.5px;"/>
    <g transform="matrix(1,0,0,1,20.5127,20.5127)">
        <path d="M585.872,1176.08C585.872,1147.92 608.246,1118.06 619.27,1092.01C727.215,836.955 1035.74,957.344 1250.7,926.7C1697.98,862.938 2027.88,725.422 2128.18,242.862C2163.82,71.359 2190.47,-64.914 2139.18,-231.443" style="fill:none;stroke:rgb(0,45,255);stroke-width:8.5px;"/>
    </g>
    <g transform="matrix(1,0,0,1,44.9697,44.9697)">
        <path d="M585.872,1176.08C585.872,1147.92 608.246,1118.06 619.27,1092.01C727.215,836.955 1035.74,957.344 1250.7,926.7C1697.98,862.938 2027.88,725.422 2128.18,242.862C2163.82,71.359 2190.47,-64.914 2139.18,-231.443" style="fill:none;stroke:rgb(0,45,255);stroke-width:8.5px;"/>
    </g>
    <g transform="matrix(1,0,0,1,68.9803,68.9803)">
        <path d="M585.872,1176.08C585.872,1147.92 608.246,1118.06 619.27,1092.01C727.215,836.955 1035.74,957.344 1250.7,926.7C1697.98,862.938 2027.88,725.422 2128.18,242.862C2163.82,71.359 2190.47,-64.914 2139.18,-231.443" style="fill:none;stroke:rgb(0,45,255);stroke-width:8.5px;"/>
    </g>
    <g transform="matrix(1,0,0,1,142.433,142.433)">
        <path d="M585.872,1176.08C585.872,1147.92 608.246,1118.06 619.27,1092.01C727.215,836.955 1035.74,957.344 1250.7,926.7C1697.98,862.938 2027.88,725.422 2128.18,242.862C2163.82,71.359 2190.47,-64.914 2139.18,-231.443" style="fill:none;stroke:rgb(0,45,255);stroke-width:8.5px;"/>
    </g>
    <g transform="matrix(1,0,0,1,213.511,213.511)">
        <path d="M585.872,1176.08C585.872,1147.92 608.246,1118.06 619.27,1092.01C727.215,836.955 1035.74,957.344 1250.7,926.7C1697.98,862.938 2027.88,725.422 2128.18,242.862C2163.82,71.359 2190.47,-64.914 2139.18,-231.443" style="fill:none;stroke:rgb(0,45,255);stroke-width:8.5px;"/>
    </g>
</svg>
